<?xml version="1.0" encoding="UTF-8" standalone="no"?>
<svg
   xmlns:dc="http://purl.org/dc/elements/1.1/"
   xmlns:cc="http://creativecommons.org/ns#"
   xmlns:rdf="http://www.w3.org/1999/02/22-rdf-syntax-ns#"
   xmlns:svg="http://www.w3.org/2000/svg"
   xmlns="http://www.w3.org/2000/svg"
   xmlns:sodipodi="http://sodipodi.sourceforge.net/DTD/sodipodi-0.dtd"
   xmlns:inkscape="http://www.inkscape.org/namespaces/inkscape"
   sodipodi:docname="icon_inkscape.svg"
   inkscape:version="1.0 (4035a4fb49, 2020-05-01)"
   id="svg8"
   version="1.1"
   viewBox="0 0 100 100"
   height="100mm"
   width="100mm">
  <defs
     id="defs2" />
  <sodipodi:namedview
     inkscape:window-maximized="1"
     inkscape:window-y="0"
     inkscape:window-x="78"
     inkscape:window-height="1055"
     inkscape:window-width="1842"
     showgrid="false"
     inkscape:document-rotation="0"
     inkscape:current-layer="layer3"
     inkscape:document-units="mm"
     inkscape:cy="178.26435"
     inkscape:cx="260.51999"
     inkscape:zoom="1.979899"
     inkscape:pageshadow="2"
     inkscape:pageopacity="0.0"
     borderopacity="1.0"
     bordercolor="#666666"
     pagecolor="#ffffff"
     id="base" />
  <metadata
     id="metadata5">
    <rdf:RDF>
      <cc:Work
         rdf:about="">
        <dc:format>image/svg+xml</dc:format>
        <dc:type
           rdf:resource="http://purl.org/dc/dcmitype/StillImage" />
        <dc:title></dc:title>
      </cc:Work>
    </rdf:RDF>
  </metadata>
  <g
     style="display:none"
     id="layer1"
     inkscape:groupmode="layer"
     inkscape:label="Pen-NonUnified">
    <rect
       inkscape:export-ydpi="507"
       inkscape:export-xdpi="507"
       y="28.904112"
       x="25"
       height="61.095886"
       width="3.5"
       id="rect833"
       style="fill:#000000;stroke:none;stroke-width:7.64445;stroke-linecap:round;stroke-linejoin:bevel;paint-order:fill markers stroke" />
    <path
       inkscape:export-ydpi="507"
       inkscape:export-xdpi="507"
       transform="matrix(0.44302179,0.70710678,-0.44302179,0.70710678,55.685652,5.5652145)"
       inkscape:transform-center-y="1.3965856"
       inkscape:randomized="0"
       inkscape:rounded="0"
       inkscape:flatsided="true"
       sodipodi:arg2="1.8325957"
       sodipodi:arg1="0.78539816"
       sodipodi:r2="2.2806168"
       sodipodi:r1="3.2252793"
       sodipodi:cy="93.501862"
       sodipodi:cx="28.187574"
       sodipodi:sides="3"
       id="path835"
       style="fill:#000000;stroke:none;stroke-width:10;stroke-linecap:round;stroke-linejoin:bevel;paint-order:fill markers stroke"
       sodipodi:type="star"
       d="m 30.468191,95.782478 -5.395997,-1.445853 3.950144,-3.950144 z" />
    <rect
       inkscape:export-ydpi="507"
       inkscape:export-xdpi="507"
       y="25.769367"
       x="25.5"
       height="3.1347454"
       width="2.5"
       id="rect837"
       style="fill:#000000;stroke:none;stroke-width:9.84747;stroke-linecap:round;stroke-linejoin:bevel;paint-order:fill markers stroke" />
    <rect
       inkscape:export-ydpi="507"
       inkscape:export-xdpi="507"
       style="fill:#000000;stroke:none;stroke-width:5.02124;stroke-linecap:round;stroke-linejoin:bevel;paint-order:fill markers stroke"
       id="rect837-3"
       width="0.64999998"
       height="3.1347456"
       x="28.5"
       y="28.904112" />
    <rect
       inkscape:export-ydpi="507"
       inkscape:export-xdpi="507"
       y="28.904112"
       x="29.15"
       height="19.672127"
       width="0.30000001"
       id="rect854"
       style="fill:#000000;stroke:none;stroke-width:11.612;stroke-linecap:round;stroke-linejoin:bevel;paint-order:fill markers stroke" />
    <path
       inkscape:export-ydpi="507"
       inkscape:export-xdpi="507"
       d="m 29.15,47 a 0.53746515,0.537256 0 0 0 -0.5,0.536014 0.53746515,0.537256 0 0 0 0.5,0.535415 z"
       style="fill:#000000;stroke:none;stroke-width:11.4889;stroke-linecap:round;stroke-linejoin:bevel;paint-order:fill markers stroke"
       id="path856" />
  </g>
  <g
     inkscape:label="Pen-Positioned"
     id="layer2"
     inkscape:groupmode="layer">
    <path
       d="m 10.015757,4.6519183 3.279831,4.2835351 -0.683558,0.5233893 63.924808,83.4872433 7.4537,4.779699 L 81.319626,89.283986 20.674648,10.080278 21.562991,9.4000874 37.217073,29.844674 a 0.92464979,0.92500977 52.559313 0 0 -0.122866,1.255672 0.92464979,0.92500977 52.559313 0 0 1.243716,0.208188 l 0.528254,0.689911 0.410274,-0.31414 L 18.693428,4.802413 18.283154,5.1165534 17.394812,5.7967425 16.711961,6.3195898 13.43213,2.0360558 Z"
       style="display:inline;fill:#000000;stroke:none;stroke-width:13.1566;stroke-linecap:round;stroke-linejoin:bevel;paint-order:fill markers stroke"
       id="rect833-7" />
  </g>
  <g
     inkscape:label="Wifi-Icon"
     id="layer3"
     inkscape:groupmode="layer">
    <g
       transform="matrix(0.87923317,0.87923317,-0.87923317,0.87923317,26.537285,-57.310168)"
       id="g1171">
      <path
         id="path1098"
         style="fill:#000000;stroke:none;stroke-width:9.02301;stroke-linecap:round;stroke-linejoin:bevel;paint-order:fill markers stroke"
         d="M 95.814085,17.480513 A 30,30 0 0 0 74.601427,8.6934524 30,30 0 0 0 53.388251,17.480513 l 3.535185,3.535185 a 24.999999,24.999999 0 0 1 0.03204,-0.03204 24.999999,24.999999 0 0 1 0.153996,-0.151929 24.999999,24.999999 0 0 1 0.155029,-0.150895 24.999999,24.999999 0 0 1 0.15658,-0.149345 24.999999,24.999999 0 0 1 0.15813,-0.147794 24.999999,24.999999 0 0 1 0.158646,-0.146245 24.999999,24.999999 0 0 1 0.160197,-0.14521 24.999999,24.999999 0 0 1 0.161748,-0.144178 24.999999,24.999999 0 0 1 0.16278,-0.14211 24.999999,24.999999 0 0 1 0.163814,-0.141076 24.999999,24.999999 0 0 1 0.165365,-0.139527 24.999999,24.999999 0 0 1 0.166398,-0.137976 24.999999,24.999999 0 0 1 0.167948,-0.136942 24.999999,24.999999 0 0 1 0.168466,-0.135393 24.999999,24.999999 0 0 1 0.170015,-0.133325 24.999999,24.999999 0 0 1 0.171049,-0.132291 24.999999,24.999999 0 0 1 0.172083,-0.130742 24.999999,24.999999 0 0 1 0.173632,-0.129708 24.999999,24.999999 0 0 1 0.17415,-0.12764 24.999999,24.999999 0 0 1 0.1757,-0.126091 24.999999,24.999999 0 0 1 0.176733,-0.125057 24.999999,24.999999 0 0 1 0.177767,-0.12299 24.999999,24.999999 0 0 1 0.178801,-0.121956 24.999999,24.999999 0 0 1 0.179834,-0.119889 24.999999,24.999999 0 0 1 0.180867,-0.118856 24.999999,24.999999 0 0 1 0.181901,-0.116789 24.999999,24.999999 0 0 1 0.182935,-0.115238 24.999999,24.999999 0 0 1 0.183968,-0.114206 24.999999,24.999999 0 0 1 0.184485,-0.112137 24.999999,24.999999 0 0 1 0.186035,-0.110588 24.999999,24.999999 0 0 1 0.186552,-0.109037 24.999999,24.999999 0 0 1 0.188102,-0.107487 24.999999,24.999999 0 0 1 0.188619,-0.10542 24.999999,24.999999 0 0 1 0.189136,-0.104386 24.999999,24.999999 0 0 1 0.190686,-0.10232 24.999999,24.999999 0 0 1 0.191203,-0.101286 24.999999,24.999999 0 0 1 0.192236,-0.0987 24.999999,24.999999 0 0 1 0.19327,-0.09767 24.999999,24.999999 0 0 1 0.193786,-0.09612 24.999999,24.999999 0 0 1 0.194821,-0.09405 24.999999,24.999999 0 0 1 0.195336,-0.0925 24.999999,24.999999 0 0 1 0.196371,-0.09095 24.999999,24.999999 0 0 1 0.196887,-0.08888 24.999999,24.999999 0 0 1 0.197921,-0.08733 24.999999,24.999999 0 0 1 0.198437,-0.08578 24.999999,24.999999 0 0 1 0.199471,-0.08372 24.999999,24.999999 0 0 1 0.199988,-0.08216 24.999999,24.999999 0 0 1 0.200505,-0.08062 24.999999,24.999999 0 0 1 0.201538,-0.07855 24.999999,24.999999 0 0 1 0.202055,-0.077 24.999999,24.999999 0 0 1 0.203088,-0.07545 24.999999,24.999999 0 0 1 0.203088,-0.07338 24.999999,24.999999 0 0 1 0.204122,-0.07183 24.999999,24.999999 0 0 1 0.204639,-0.06976 24.999999,24.999999 0 0 1 0.205155,-0.06821 24.999999,24.999999 0 0 1 0.205673,-0.06666 24.999999,24.999999 0 0 1 0.206705,-0.06459 24.999999,24.999999 0 0 1 0.206706,-0.06305 24.999999,24.999999 0 0 1 0.207739,-0.06098 24.999999,24.999999 0 0 1 0.20774,-0.05891 24.999999,24.999999 0 0 1 0.208772,-0.05788 24.999999,24.999999 0 0 1 0.208773,-0.05529 24.999999,24.999999 0 0 1 0.20929,-0.05374 24.999999,24.999999 0 0 1 0.210323,-0.05219 24.999999,24.999999 0 0 1 0.210323,-0.05013 24.999999,24.999999 0 0 1 0.21084,-0.04858 24.999999,24.999999 0 0 1 0.210839,-0.04651 24.999999,24.999999 0 0 1 0.211874,-0.04444 24.999999,24.999999 0 0 1 0.211873,-0.04289 24.999999,24.999999 0 0 1 0.21239,-0.04134 24.999999,24.999999 0 0 1 0.212391,-0.03927 24.999999,24.999999 0 0 1 0.213423,-0.03721 24.999999,24.999999 0 0 1 0.212907,-0.03566 24.999999,24.999999 0 0 1 0.213941,-0.03359 24.999999,24.999999 0 0 1 0.21394,-0.03204 24.999999,24.999999 0 0 1 0.21394,-0.02997 24.999999,24.999999 0 0 1 0.214458,-0.02791 24.999999,24.999999 0 0 1 0.214973,-0.02636 24.999999,24.999999 0 0 1 0.214459,-0.02429 24.999999,24.999999 0 0 1 0.215489,-0.02274 24.999999,24.999999 0 0 1 0.214974,-0.02067 24.999999,24.999999 0 0 1 0.21549,-0.0186 24.999999,24.999999 0 0 1 0.215493,-0.01705 24.999999,24.999999 0 0 1 0.216006,-0.01499 24.999999,24.999999 0 0 1 0.216008,-0.01344 24.999999,24.999999 0 0 1 0.216006,-0.01137 24.999999,24.999999 0 0 1 0.216008,-0.0093 24.999999,24.999999 0 0 1 0.216009,-0.0078 24.999999,24.999999 0 0 1 0.216006,-0.0057 24.999999,24.999999 0 0 1 0.216524,-0.0041 24.999999,24.999999 0 0 1 0.216009,-0.0021 24.999999,24.999999 0 0 1 0.125574,0 24.999999,24.999999 0 0 1 0.216005,5.17e-4 24.999999,24.999999 0 0 1 0.216525,0.0031 24.999999,24.999999 0 0 1 0.216008,0.0047 24.999999,24.999999 0 0 1 0.216009,0.0067 24.999999,24.999999 0 0 1 0.216006,0.0083 24.999999,24.999999 0 0 1 0.216008,0.01034 24.999999,24.999999 0 0 1 0.216008,0.01188 24.999999,24.999999 0 0 1 0.216006,0.01395 24.999999,24.999999 0 0 1 0.215493,0.01602 24.999999,24.999999 0 0 1 0.21549,0.01757 24.999999,24.999999 0 0 1 0.21549,0.01964 24.999999,24.999999 0 0 1 0.21549,0.0217 24.999999,24.999999 0 0 1 0.214973,0.02325 24.999999,24.999999 0 0 1 0.214459,0.02532 24.999999,24.999999 0 0 1 0.214973,0.02687 24.999999,24.999999 0 0 1 0.213943,0.02894 24.999999,24.999999 0 0 1 0.214455,0.03101 24.999999,24.999999 0 0 1 0.213423,0.03256 24.999999,24.999999 0 0 1 0.213424,0.03462 24.999999,24.999999 0 0 1 0.213423,0.03617 24.999999,24.999999 0 0 1 0.212908,0.03824 24.999999,24.999999 0 0 1 0.212392,0.03979 24.999999,24.999999 0 0 1 0.212389,0.04186 24.999999,24.999999 0 0 1 0.211873,0.04392 24.999999,24.999999 0 0 1 0.211357,0.04547 24.999999,24.999999 0 0 1 0.210838,0.04703 24.999999,24.999999 0 0 1 0.210841,0.04909 24.999999,24.999999 0 0 1 0.209807,0.05116 24.999999,24.999999 0 0 1 0.209807,0.05271 24.999999,24.999999 0 0 1 0.209288,0.05478 24.999999,24.999999 0 0 1 0.208775,0.05633 24.999999,24.999999 0 0 1 0.208253,0.05788 24.999999,24.999999 0 0 1 0.20774,0.06046 24.999999,24.999999 0 0 1 0.207222,0.06149 24.999999,24.999999 0 0 1 0.206706,0.06356 24.999999,24.999999 0 0 1 0.206189,0.06563 24.999999,24.999999 0 0 1 0.205672,0.06718 24.999999,24.999999 0 0 1 0.205155,0.06873 24.999999,24.999999 0 0 1 0.204123,0.0708 24.999999,24.999999 0 0 1 0.204121,0.07235 24.999999,24.999999 0 0 1 0.203089,0.07441 24.999999,24.999999 0 0 1 0.202573,0.07597 24.999999,24.999999 0 0 1 0.201538,0.07751 24.999999,24.999999 0 0 1 0.20102,0.07958 24.999999,24.999999 0 0 1 0.200504,0.08113 24.999999,24.999999 0 0 1 0.199988,0.0832 24.999999,24.999999 0 0 1 0.198956,0.08475 24.999999,24.999999 0 0 1 0.197919,0.0863 24.999999,24.999999 0 0 1 0.197922,0.08785 24.999999,24.999999 0 0 1 0.196371,0.08992 24.999999,24.999999 0 0 1 0.196371,0.09147 24.999999,24.999999 0 0 1 0.194818,0.09302 24.999999,24.999999 0 0 1 0.194304,0.09508 24.999999,24.999999 0 0 1 0.193787,0.09664 24.999999,24.999999 0 0 1 0.192754,0.09819 24.999999,24.999999 0 0 1 0.191717,0.09973 24.999999,24.999999 0 0 1 0.190688,0.101803 24.999999,24.999999 0 0 1 0.190169,0.102836 24.999999,24.999999 0 0 1 0.189135,0.104903 24.999999,24.999999 0 0 1 0.188103,0.106453 24.999999,24.999999 0 0 1 0.187584,0.108004 24.999999,24.999999 0 0 1 0.186552,0.110071 24.999999,24.999999 0 0 1 0.185002,0.111104 24.999999,24.999999 0 0 1 0.184486,0.113172 24.999999,24.999999 0 0 1 0.183452,0.114204 24.999999,24.999999 0 0 1 0.182417,0.116273 24.999999,24.999999 0 0 1 0.181901,0.117822 24.999999,24.999999 0 0 1 0.18035,0.118856 24.999999,24.999999 0 0 1 0.179316,0.120922 24.999999,24.999999 0 0 1 0.178285,0.122474 24.999999,24.999999 0 0 1 0.177249,0.123506 24.999999,24.999999 0 0 1 0.176218,0.125574 24.999999,24.999999 0 0 1 0.175183,0.127124 24.999999,24.999999 0 0 1 0.174149,0.128158 24.999999,24.999999 0 0 1 0.172601,0.130224 24.999999,24.999999 0 0 1 0.172082,0.131258 24.999999,24.999999 0 0 1 0.170532,0.132809 24.999999,24.999999 0 0 1 0.169498,0.134359 24.999999,24.999999 0 0 1 0.167949,0.135909 24.999999,24.999999 0 0 1 0.167431,0.137459 24.999999,24.999999 0 0 1 0.165881,0.138493 24.999999,24.999999 0 0 1 0.164332,0.140043 24.999999,24.999999 0 0 1 0.163815,0.141593 24.999999,24.999999 0 0 1 0.162263,0.143144 24.999999,24.999999 0 0 1 0.160713,0.144177 24.999999,24.999999 0 0 1 0.160198,0.146244 24.999999,24.999999 0 0 1 0.158131,0.146762 24.999999,24.999999 0 0 1 0.157612,0.148828 24.999999,24.999999 0 0 1 0.155546,0.149861 24.999999,24.999999 0 0 1 0.154511,0.150896 24.999999,24.999999 0 0 1 0.121441,0.120406 z" />
      <path
         id="path1103"
         style="fill:#000000;stroke:none;stroke-width:6.01533;stroke-linecap:round;stroke-linejoin:bevel;paint-order:fill markers stroke"
         d="m 88.743715,24.551399 a 19.999999,19.999999 0 0 0 -14.142288,-5.85804 19.999999,19.999999 0 0 0 -0.07958,0 19.999999,19.999999 0 0 0 -14.062708,5.85804 l 3.535702,3.535701 a 14.999999,14.999999 0 0 1 0.0801,-0.0801 14.999999,14.999999 0 0 1 0.119889,-0.116789 14.999999,14.999999 0 0 1 0.12144,-0.115238 14.999999,14.999999 0 0 1 0.122473,-0.114205 14.999999,14.999999 0 0 1 0.124023,-0.113171 14.999999,14.999999 0 0 1 0.125058,-0.111105 14.999999,14.999999 0 0 1 0.12609,-0.110071 14.999999,14.999999 0 0 1 0.127641,-0.10852 14.999999,14.999999 0 0 1 0.128674,-0.107487 14.999999,14.999999 0 0 1 0.130225,-0.10542 14.999999,14.999999 0 0 1 0.130741,-0.104386 14.999999,14.999999 0 0 1 0.132292,-0.102837 14.999999,14.999999 0 0 1 0.133325,-0.101285 14.999999,14.999999 0 0 1 0.134875,-0.09974 14.999999,14.999999 0 0 1 0.135393,-0.09818 14.999999,14.999999 0 0 1 0.136942,-0.09664 14.999999,14.999999 0 0 1 0.137976,-0.0956 14.999999,14.999999 0 0 1 0.138493,-0.09353 14.999999,14.999999 0 0 1 0.140043,-0.09198 14.999999,14.999999 0 0 1 0.141077,-0.09095 14.999999,14.999999 0 0 1 0.141593,-0.08888 14.999999,14.999999 0 0 1 0.143144,-0.08733 14.999999,14.999999 0 0 1 0.143661,-0.08578 14.999999,14.999999 0 0 1 0.14521,-0.08423 14.999999,14.999999 0 0 1 0.145728,-0.08268 14.999999,14.999999 0 0 1 0.146244,-0.08062 14.999999,14.999999 0 0 1 0.147795,-0.07958 14.999999,14.999999 0 0 1 0.148311,-0.07751 14.999999,14.999999 0 0 1 0.149345,-0.07597 14.999999,14.999999 0 0 1 0.150379,-0.07441 14.999999,14.999999 0 0 1 0.150895,-0.07235 14.999999,14.999999 0 0 1 0.151928,-0.07131 14.999999,14.999999 0 0 1 0.152446,-0.06925 14.999999,14.999999 0 0 1 0.152962,-0.06718 14.999999,14.999999 0 0 1 0.153996,-0.06615 14.999999,14.999999 0 0 1 0.155029,-0.06408 14.999999,14.999999 0 0 1 0.155546,-0.06201 14.999999,14.999999 0 0 1 0.156063,-0.06098 14.999999,14.999999 0 0 1 0.157096,-0.05891 14.999999,14.999999 0 0 1 0.157097,-0.05684 14.999999,14.999999 0 0 1 0.15813,-0.05529 14.999999,14.999999 0 0 1 0.158646,-0.05374 14.999999,14.999999 0 0 1 0.15968,-0.05168 14.999999,14.999999 0 0 1 0.159681,-0.05013 14.999999,14.999999 0 0 1 0.160713,-0.04806 14.999999,14.999999 0 0 1 0.160714,-0.04651 14.999999,14.999999 0 0 1 0.16123,-0.04496 14.999999,14.999999 0 0 1 0.162265,-0.04237 14.999999,14.999999 0 0 1 0.162263,-0.04134 14.999999,14.999999 0 0 1 0.162781,-0.03927 14.999999,14.999999 0 0 1 0.163298,-0.03721 14.999999,14.999999 0 0 1 0.163814,-0.03566 14.999999,14.999999 0 0 1 0.16433,-0.03359 14.999999,14.999999 0 0 1 0.164333,-0.03204 14.999999,14.999999 0 0 1 0.164846,-0.02997 14.999999,14.999999 0 0 1 0.164849,-0.02842 14.999999,14.999999 0 0 1 0.165364,-0.02635 14.999999,14.999999 0 0 1 0.165881,-0.02429 14.999999,14.999999 0 0 1 0.165883,-0.02274 14.999999,14.999999 0 0 1 0.166396,-0.02067 14.999999,14.999999 0 0 1 0.166399,-0.01912 14.999999,14.999999 0 0 1 0.166915,-0.01705 14.999999,14.999999 0 0 1 0.1664,-0.01499 14.999999,14.999999 0 0 1 0.16743,-0.01344 14.999999,14.999999 0 0 1 0.166916,-0.01137 14.999999,14.999999 0 0 1 0.167431,-0.0098 14.999999,14.999999 0 0 1 0.166915,-0.0078 14.999999,14.999999 0 0 1 0.167431,-0.0062 14.999999,14.999999 0 0 1 0.167431,-0.0036 14.999999,14.999999 0 0 1 0.167949,-0.0021 14.999999,14.999999 0 0 1 0.109038,-5.17e-4 14.999999,14.999999 0 0 1 0.16743,10e-4 14.999999,14.999999 0 0 1 0.167431,0.0026 14.999999,14.999999 0 0 1 0.167434,0.0047 14.999999,14.999999 0 0 1 0.167431,0.0067 14.999999,14.999999 0 0 1 0.167431,0.0083 14.999999,14.999999 0 0 1 0.166915,0.01034 14.999999,14.999999 0 0 1 0.166915,0.01188 14.999999,14.999999 0 0 1 0.166915,0.01447 14.999999,14.999999 0 0 1 0.166915,0.0155 14.999999,14.999999 0 0 1 0.166915,0.01809 14.999999,14.999999 0 0 1 0.165881,0.01964 14.999999,14.999999 0 0 1 0.166399,0.02119 14.999999,14.999999 0 0 1 0.16588,0.02325 14.999999,14.999999 0 0 1 0.165365,0.02532 14.999999,14.999999 0 0 1 0.165365,0.02687 14.999999,14.999999 0 0 1 0.165364,0.02894 14.999999,14.999999 0 0 1 0.16433,0.03049 14.999999,14.999999 0 0 1 0.164333,0.03256 14.999999,14.999999 0 0 1 0.16433,0.03462 14.999999,14.999999 0 0 1 0.163298,0.03617 14.999999,14.999999 0 0 1 0.163298,0.03772 14.999999,14.999999 0 0 1 0.16278,0.04031 14.999999,14.999999 0 0 1 0.162264,0.04134 14.999999,14.999999 0 0 1 0.161747,0.04341 14.999999,14.999999 0 0 1 0.161232,0.04547 14.999999,14.999999 0 0 1 0.160713,0.04703 14.999999,14.999999 0 0 1 0.160198,0.04858 14.999999,14.999999 0 0 1 0.159678,0.05064 14.999999,14.999999 0 0 1 0.159163,0.05271 14.999999,14.999999 0 0 1 0.158647,0.05426 14.999999,14.999999 0 0 1 0.157615,0.05581 14.999999,14.999999 0 0 1 0.157612,0.05788 14.999999,14.999999 0 0 1 0.15658,0.05943 14.999999,14.999999 0 0 1 0.155546,0.06098 14.999999,14.999999 0 0 1 0.155546,0.06305 14.999999,14.999999 0 0 1 0.154512,0.0646 14.999999,14.999999 0 0 1 0.153995,0.06666 14.999999,14.999999 0 0 1 0.152964,0.06821 14.999999,14.999999 0 0 1 0.151929,0.06976 14.999999,14.999999 0 0 1 0.15141,0.07131 14.999999,14.999999 0 0 1 0.150897,0.07338 14.999999,14.999999 0 0 1 0.14986,0.07493 14.999999,14.999999 0 0 1 0.148828,0.07648 14.999999,14.999999 0 0 1 0.148313,0.07803 14.999999,14.999999 0 0 1 0.147277,0.0801 14.999999,14.999999 0 0 1 0.146243,0.08165 14.999999,14.999999 0 0 1 0.14573,0.0832 14.999999,14.999999 0 0 1 0.144177,0.08475 14.999999,14.999999 0 0 1 0.143661,0.0863 14.999999,14.999999 0 0 1 0.142626,0.08785 14.999999,14.999999 0 0 1 0.141592,0.0894 14.999999,14.999999 0 0 1 0.14056,0.09147 14.999999,14.999999 0 0 1 0.139528,0.0925 14.999999,14.999999 0 0 1 0.138493,0.09405 14.999999,14.999999 0 0 1 0.137459,0.09612 14.999999,14.999999 0 0 1 0.136425,0.09715 14.999999,14.999999 0 0 1 0.134876,0.0987 14.999999,14.999999 0 0 1 0.134358,0.100253 14.999999,14.999999 0 0 1 0.132808,0.101802 14.999999,14.999999 0 0 1 0.132292,0.103353 14.999999,14.999999 0 0 1 0.130741,0.104903 14.999999,14.999999 0 0 1 0.129191,0.106454 14.999999,14.999999 0 0 1 0.128674,0.107487 14.999999,14.999999 0 0 1 0.127125,0.109037 14.999999,14.999999 0 0 1 0.125574,0.110587 14.999999,14.999999 0 0 1 0.125058,0.111622 14.999999,14.999999 0 0 1 0.122989,0.113688 14.999999,14.999999 0 0 1 0.122473,0.114205 14.999999,14.999999 0 0 1 0.120922,0.116272 14.999999,14.999999 0 0 1 0.119372,0.117305 14.999999,14.999999 0 0 1 0.03876,0.03876 z" />
      <path
         id="path1108"
         style="fill:#000000;stroke:none;stroke-width:3.00765;stroke-linecap:round;stroke-linejoin:bevel;paint-order:fill markers stroke"
         d="m 81.672313,31.622285 a 10,10 0 0 0 -7.070886,-2.92902 10,10 0 0 0 -7.071404,2.92902 l 3.535702,3.535702 a 5,5 0 0 1 0.02739,-0.02739 5,5 0 0 1 0.06925,-0.06718 5,5 0 0 1 0.0708,-0.06563 5,5 0 0 1 0.07235,-0.0646 5,5 0 0 1 0.07338,-0.06305 5,5 0 0 1 0.07441,-0.0615 5,5 0 0 1 0.07596,-0.05994 5,5 0 0 1 0.07648,-0.05891 5,5 0 0 1 0.07803,-0.05736 5,5 0 0 1 0.07906,-0.05529 5,5 0 0 1 0.08062,-0.05426 5,5 0 0 1 0.08113,-0.05271 5,5 0 0 1 0.08217,-0.05064 5,5 0 0 1 0.0832,-0.04961 5,5 0 0 1 0.08372,-0.04754 5,5 0 0 1 0.08526,-0.04651 5,5 0 0 1 0.08578,-0.04444 5,5 0 0 1 0.08682,-0.04289 5,5 0 0 1 0.08733,-0.04082 5,5 0 0 1 0.08837,-0.03927 5,5 0 0 1 0.0894,-0.03772 5,5 0 0 1 0.0894,-0.03617 5,5 0 0 1 0.09043,-0.03411 5,5 0 0 1 0.09147,-0.03256 5,5 0 0 1 0.09147,-0.03101 5,5 0 0 1 0.0925,-0.02894 5,5 0 0 1 0.0925,-0.02687 5,5 0 0 1 0.09354,-0.02532 5,5 0 0 1 0.09353,-0.02377 5,5 0 0 1 0.09457,-0.0217 5,5 0 0 1 0.09457,-0.01964 5,5 0 0 1 0.09508,-0.01809 5,5 0 0 1 0.09509,-0.01602 5,5 0 0 1 0.0956,-0.01447 5,5 0 0 1 0.09612,-0.0124 5,5 0 0 1 0.09612,-0.01085 5,5 0 0 1 0.09612,-0.0088 5,5 0 0 1 0.09663,-0.0067 5,5 0 0 1 0.09664,-0.0052 5,5 0 0 1 0.09663,-0.0031 5,5 0 0 1 0.09664,-0.0016 5,5 0 0 1 0.02015,0 5,5 0 0 1 0.09663,10e-4 5,5 0 0 1 0.09664,0.0026 5,5 0 0 1 0.09663,0.0047 5,5 0 0 1 0.09612,0.0067 5,5 0 0 1 0.09664,0.0083 5,5 0 0 1 0.09612,0.01033 5,5 0 0 1 0.09612,0.0124 5,5 0 0 1 0.0956,0.01395 5,5 0 0 1 0.09508,0.0155 5,5 0 0 1 0.0956,0.01757 5,5 0 0 1 0.09457,0.01964 5,5 0 0 1 0.09405,0.02119 5,5 0 0 1 0.09405,0.02325 5,5 0 0 1 0.09354,0.02532 5,5 0 0 1 0.09302,0.02635 5,5 0 0 1 0.0925,0.02894 5,5 0 0 1 0.09147,0.02997 5,5 0 0 1 0.09147,0.03256 5,5 0 0 1 0.09043,0.03359 5,5 0 0 1 0.08992,0.03566 5,5 0 0 1 0.0894,0.03721 5,5 0 0 1 0.08837,0.03927 5,5 0 0 1 0.08785,0.04082 5,5 0 0 1 0.08682,0.04237 5,5 0 0 1 0.08578,0.04393 5,5 0 0 1 0.08527,0.04599 5,5 0 0 1 0.08423,0.04754 5,5 0 0 1 0.08372,0.04909 5,5 0 0 1 0.08216,0.05064 5,5 0 0 1 0.08165,0.05219 5,5 0 0 1 0.0801,0.05374 5,5 0 0 1 0.07958,0.05529 5,5 0 0 1 0.07803,0.05684 5,5 0 0 1 0.077,0.05839 5,5 0 0 1 0.07596,0.05995 5,5 0 0 1 0.07493,0.0615 5,5 0 0 1 0.07338,0.06253 5,5 0 0 1 0.07235,0.06408 5,5 0 0 1 0.07131,0.06563 5,5 0 0 1 0.06977,0.06718 5,5 0 0 1 0.04134,0.04134 z" />
      <circle
         style="fill:#000000;stroke:none;stroke-width:0.75191;stroke-linecap:round;stroke-linejoin:bevel;paint-order:fill markers stroke"
         id="path992-1-2-7-0-9-3"
         cx="74.601189"
         cy="38.693451"
         r="2.5" />
    </g>
  </g>
</svg>
